<?xml version="1.0" encoding="UTF-8"?>
<svg width="250mm" height="176mm" version="1.1" viewBox="0 0 250 176" xmlns="http://www.w3.org/2000/svg"><defs><marker id="b" overflow="visible" orient="auto"><path transform="scale(1.1) rotate(180) translate(1)" d="m8.7186 4.0337-10.926-4.0177 10.926-4.0177c-1.7455 2.3721-1.7354 5.6175-6e-7 8.0354z" fill-rule="evenodd" stroke="#000" stroke-linejoin="round" stroke-width=".625"/></marker><marker id="d" overflow="visible" orient="auto"><path transform="scale(1.1) rotate(180) translate(1)" d="m8.7186 4.0337-10.926-4.0177 10.926-4.0177c-1.7455 2.3721-1.7354 5.6175-6e-7 8.0354z" fill-rule="evenodd" stroke="#000" stroke-linejoin="round" stroke-width=".625"/></marker><marker id="e" overflow="visible" orient="auto"><path transform="scale(1.1) rotate(180) translate(1)" d="m8.7186 4.0337-10.926-4.0177 10.926-4.0177c-1.7455 2.3721-1.7354 5.6175-6e-7 8.0354z" fill-rule="evenodd" stroke="#000" stroke-linejoin="round" stroke-width=".625"/></marker><marker id="j" overflow="visible" orient="auto"><path transform="scale(1.1) rotate(180) translate(1)" d="m8.7186 4.0337-10.926-4.0177 10.926-4.0177c-1.7455 2.3721-1.7354 5.6175-6e-7 8.0354z" fill-rule="evenodd" stroke="#000" stroke-linejoin="round" stroke-width=".625"/></marker><marker id="a" overflow="visible" orient="auto"><path transform="matrix(-1.1,0,0,-1.1,-1.1,0)" d="m8.7186 4.0337-10.926-4.0177 10.926-4.0177c-1.7455 2.3721-1.7354 5.6175-6e-7 8.0354z" fill-rule="evenodd" stroke="#000" stroke-linejoin="round" stroke-width=".625"/></marker><marker id="h" overflow="visible" orient="auto"><path transform="matrix(-1.1,0,0,-1.1,-1.1,0)" d="m8.7186 4.0337-10.926-4.0177 10.926-4.0177c-1.7455 2.3721-1.7354 5.6175-6e-7 8.0354z" fill-rule="evenodd" stroke="#000" stroke-linejoin="round" stroke-width=".625"/></marker><marker id="g" overflow="visible" orient="auto"><path transform="matrix(-1.1,0,0,-1.1,-1.1,0)" d="m8.7186 4.0337-10.926-4.0177 10.926-4.0177c-1.7455 2.3721-1.7354 5.6175-6e-7 8.0354z" fill-rule="evenodd" stroke="#000" stroke-linejoin="round" stroke-width=".625"/></marker><marker id="f" overflow="visible" orient="auto"><path transform="matrix(-1.1,0,0,-1.1,-1.1,0)" d="m8.7186 4.0337-10.926-4.0177 10.926-4.0177c-1.7455 2.3721-1.7354 5.6175-6e-7 8.0354z" fill-rule="evenodd" stroke="#000" stroke-linejoin="round" stroke-width=".625"/></marker><marker id="i" overflow="visible" orient="auto"><path transform="matrix(-1.1,0,0,-1.1,-1.1,0)" d="m8.7186 4.0337-10.926-4.0177 10.926-4.0177c-1.7455 2.3721-1.7354 5.6175-6e-7 8.0354z" fill-rule="evenodd" stroke="#000" stroke-linejoin="round" stroke-width=".625"/></marker><marker id="c" overflow="visible" orient="auto"><path transform="matrix(-1.1,0,0,-1.1,-1.1,0)" d="m8.7186 4.0337-10.926-4.0177 10.926-4.0177c-1.7455 2.3721-1.7354 5.6175-6e-7 8.0354z" fill-rule="evenodd" stroke="#000" stroke-linejoin="round" stroke-width=".625"/></marker></defs><g transform="matrix(.61807 0 0 .61807 1.0721 1.1289)"><path transform="scale(.26458)" d="m817.58 8.8398v657.87h-807.87v8h815.87v-665.87z" fill="#666"/><rect x=".45153" y=".2224" width="215.87" height="176.18" ry="0" fill="none" stroke="#000" stroke-width=".265"/></g><text x="3.0035124" y="8.9952574" fill="#000000" font-family="sans-serif" font-size="6.5412px" stroke-width=".16353" style="line-height:1.25" xml:space="preserve"><tspan x="3.0035124" y="8.9952574" stroke-width=".16353">Numeric type classes in Haskell</tspan></text><g transform="matrix(.61807 0 0 .61807 -45.984 1.313)"><rect x="112.46" y="19.175" width="17.296" height="10.27" ry="2.4414" fill="#faf2cc" stroke="#000" stroke-width=".20626"/><g transform="translate(14.51 1.1696)"><text x="101.23174" y="25.442904" font-family="'Ubuntu Mono'" font-size="7.0556px" font-weight="bold" stroke-width=".26458" style="line-height:1.25" xml:space="preserve"><tspan x="101.23174" y="25.442904" font-family="'Ubuntu Mono'" font-weight="bold" stroke-width=".26458">Num</tspan></text></g></g><g transform="matrix(.61807 0 0 .61807 -53.464 6.6596)"><rect x="218.75" y="17.402" width="17.296" height="10.2" ry="2.4248" fill="#faf2cc" stroke="#000" stroke-width=".20556"/><text x="221.89845" y="25.497068" fill="#808080" font-family="'Ubuntu Mono'" font-size="7.0556px" font-weight="bold" stroke-width=".26458" style="line-height:1.25" xml:space="preserve"><tspan x="221.89845" y="25.497068" fill="#808080" font-family="'Ubuntu Mono'" font-weight="bold" stroke-width=".26458">Ord</tspan></text></g><g transform="matrix(.61807 0 0 .61807 113.88 28.059)"><rect x="11.1" y="18.93" width="20.445" height="10.183" ry="2.4206" fill="#faf2cc" stroke="#000" stroke-width=".22329"/><text x="13.985712" y="27.029398" fill="#808080" font-family="'Ubuntu Mono'" font-size="7.0556px" font-weight="bold" stroke-width=".26458" style="line-height:1.25" xml:space="preserve"><tspan x="13.985712" y="27.029398" fill="#808080" font-family="'Ubuntu Mono'" font-weight="bold" stroke-width=".26458">Enum</tspan></text></g><g transform="matrix(.61807 0 0 .61807 -45.984 19.783)"><rect x="100.88" y="54.285" width="40.452" height="10.2" ry="2.4248" fill="#faf2cc" stroke="#000" stroke-width=".20556"/><text x="103.77837" y="62.37928" font-family="'Ubuntu Mono'" font-size="7.0556px" font-weight="bold" stroke-width=".26458" style="line-height:1.25" xml:space="preserve"><tspan x="103.77837" y="62.37928" font-family="'Ubuntu Mono'" font-weight="bold" stroke-width=".26458">Fractional</tspan></text></g><g transform="matrix(.61807 0 0 .61807 -44.218 .35517)"><rect x="179.16" y="53.99" width="20.912" height="10.2" ry="2.4248" fill="#faf2cc" stroke="#000" stroke-width=".20556"/><text x="182.11702" y="62.098892" font-family="'Ubuntu Mono'" font-size="7.0556px" font-weight="bold" stroke-width=".26458" style="line-height:1.25" xml:space="preserve"><tspan x="182.11702" y="62.098892" font-family="'Ubuntu Mono'" font-weight="bold" stroke-width=".26458">Real</tspan></text></g><g transform="matrix(.61807 0 0 .61807 -1.8772 .79692)"><rect x="104.1" y="96.885" width="34.03" height="10.2" ry="2.4248" fill="#faf2cc" stroke="#000" stroke-width=".20556"/><text x="107.05309" y="104.99411" font-family="'Ubuntu Mono'" font-size="7.0556px" font-weight="bold" stroke-width=".26458" style="line-height:1.25" xml:space="preserve"><tspan x="107.05309" y="104.99411" font-family="'Ubuntu Mono'" font-weight="bold" stroke-width=".26458">RealFrac</tspan></text></g><g fill="none" stroke="#000" stroke-width=".16379"><path d="m28.871 19.512v33.822" marker-end="url(#j)"/><path d="m34.026 18.739 32.992 15.363" marker-end="url(#e)"/><path d="m84.33 23.72-8.7425 10.005" marker-end="url(#d)"/><path d="m72.978 40.029-1e-6 20.649" marker-end="url(#b)"/></g><rect x="101.68" y="59.639" width="20.821" height="9.1393" ry=".57958" fill="#e8ecfb" stroke="#000" stroke-width=".097634"/><g transform="matrix(.61807 0 0 .61807 75.277 19.656)"><rect x="42.766" y="54.489" width="33.633" height="10.2" ry="2.4248" fill="#faf2cc" stroke="#000" stroke-width=".20556"/><text x="45.723648" y="61.490322" fill="#000000" font-family="'Ubuntu Mono'" font-size="7.0556px" font-weight="bold" stroke-width=".26458" style="line-height:1.25" xml:space="preserve"><tspan x="45.723648" y="61.490322" fill="#000000" font-family="'Ubuntu Mono'" font-weight="bold" stroke-width=".26458">Integral</tspan></text></g><g transform="matrix(.61807 0 0 .61807 -45.984 -2.0976)"><rect x="103.53" y="133.73" width="35.165" height="10.429" ry="2.4248" fill="#faf2cc" stroke="#000" stroke-width=".20556"/><text x="106.42176" y="140.73009" font-family="'Ubuntu Mono'" font-size="7.0556px" font-weight="bold" stroke-width=".26458" style="line-height:1.25" xml:space="preserve"><tspan x="106.42176" y="140.73009" font-family="'Ubuntu Mono'" font-weight="bold" stroke-width=".26458">Floating</tspan></text></g><text x="105.87331" y="67.423019" font-family="'Ubuntu Mono'" font-size="3.0526px" stroke-width=".16353" style="line-height:1.25" xml:space="preserve"><tspan x="105.87331" y="67.423019" font-size="3.0526px" stroke-width=".16353">div, mod</tspan></text><rect x="17.422" y="19.528" width="21.784" height="15.229" ry="1.0921" fill="#e8ecfb" stroke="#000" stroke-width=".14018"/><text x="22.075798" y="23.108568" font-family="'Ubuntu Mono'" font-size="4.3608px" stroke-width=".16353" style="line-height:1.25" xml:space="preserve"><tspan x="22.075798" y="23.108568" font-size="4.3608px" stroke-width=".16353">+ - *</tspan></text><text x="18.747625" y="33.348442" font-family="'Ubuntu Mono'" font-size="3.0526px" stroke-width=".16353" style="line-height:1.25" xml:space="preserve"><tspan x="18.747625" y="33.348442" font-size="3.0526px" stroke-width=".16353">abs, signum</tspan></text><rect x="79.435" y="33.72" width="19.771" height="5.252" ry=".88541" fill="#e8ecfb" stroke="#000" stroke-width=".1156"/><rect x="20.05" y="86.874" width="17.643" height="9.7653" ry=".61927" fill="#e8ecfb" stroke="#000" stroke-width=".092901"/><text x="22.168947" y="90.593521" font-family="'Ubuntu Mono'" font-size="3.0526px" stroke-width=".16353" style="line-height:1.25" xml:space="preserve"><tspan x="22.168947" y="90.593521">exp, log,</tspan><tspan x="22.168947" y="94.409256">sin, cos</tspan></text><rect x="83.494" y="61.333" width="11.154" height="5.252" ry=".88541" fill="#e8ecfb" stroke="#000" stroke-width=".1156"/><text x="84.704422" y="64.995216" font-family="'Ubuntu Mono'" font-size="3.0526px" stroke-width=".16353" style="line-height:1.25" xml:space="preserve"><tspan x="84.704422" y="64.995216" font-size="3.0526px" stroke-width=".16353">floor</tspan></text><rect x="62.543" y="92.188" width="20.821" height="9.1393" ry=".57958" fill="#e8ecfb" stroke="#000" stroke-width=".097634"/><rect x="105.45" y="62.495" width="3.8859" height="1.31" ry="0" fill="#4dff01"/><text x="105.89452" y="63.519485" font-family="'Ubuntu Mono'" font-size="3.0526px" stroke-width=".16353" style="line-height:1.25" xml:space="preserve"><tspan x="105.89452" y="63.519485" font-size="3.0526px" stroke-width=".16353">toInteger</tspan></text><rect x="81.467" y="36.606" width="3.5665" height="1.1701" ry="0" fill="#4dff01"/><text x="81.785645" y="37.427967" font-family="'Ubuntu Mono'" font-size="3.0526px" stroke-width=".16353" style="line-height:1.25" xml:space="preserve"><tspan x="81.785645" y="37.427967" font-size="3.0526px" stroke-width=".16353">toRational</tspan></text><rect x="18.833" y="25.516" width="6.5787" height="1.31" ry="0" fill="#ff00d1"/><text x="19.106739" y="26.49452" font-family="'Ubuntu Mono'" font-size="3.0526px" stroke-width=".16353" style="line-height:1.25" xml:space="preserve"><tspan x="19.106739" y="26.49452" font-size="3.0526px" stroke-width=".16353">fromInteger</tspan></text><rect x="64.485" y="98.74" width="9.5565" height="1.31" ry="0" fill="#ff00d1"/><text x="64.792557" y="99.714409" font-family="'Ubuntu Mono'" font-size="3.0526px" stroke-width=".16353" style="line-height:1.25" xml:space="preserve"><tspan x="64.792557" y="99.714409" font-size="3.0526px" stroke-width=".16353">encodeFloat</tspan></text><rect x="64.512" y="94.815" width="9.6506" height="1.1789" ry="0" fill="#4dff01"/><text x="64.813774" y="95.810875" font-family="'Ubuntu Mono'" font-size="3.0526px" stroke-width=".16353" style="line-height:1.25" xml:space="preserve"><tspan x="64.813774" y="95.810875" font-size="3.0526px" stroke-width=".16353">decodeFloat</tspan></text><g font-family="serif"><text x="20.604271" y="99.548729" font-size="2.6165px" stroke-width=".16353" style="line-height:1.25" xml:space="preserve"><tspan x="20.604271" y="99.548729">Elementary</tspan><tspan x="20.604271" y="103.13395">functions</tspan></text><text x="115.28465" y="25.603121" font-size="5.6444px" stroke-width=".26458" style="line-height:1.25" xml:space="preserve"><tspan x="115.28465" y="25.603121" stroke-width=".26458"/></text><text x="58.061878" y="104.3367" font-size="2.6165px" stroke-width=".16353" style="line-height:1.25" xml:space="preserve"><tspan x="58.061878" y="104.3367">(Similar to) machine </tspan><tspan x="58.061878" y="107.92192">floating point types</tspan></text><text x="46.812073" y="39.173409" font-size="2.6165px" stroke-width=".16353" style="line-height:1.25" xml:space="preserve"><tspan x="46.812073" y="39.173409">Have ordering</tspan><tspan x="46.812073" y="42.758625">(by converting to</tspan><tspan x="46.812073" y="46.343845">Rational)</tspan><tspan x="46.812073" y="49.929062"/></text></g><text x="21.763229" y="29.433058" font-family="'Ubuntu Mono'" font-size="3.0526px" stroke-width=".16353" style="line-height:1.25" xml:space="preserve"><tspan x="21.763229" y="29.433058" font-size="3.0526px" stroke-width=".16353">(100, 0x3F)</tspan></text><text x="160.53162" y="121.28831" font-family="serif" font-size="4.2333px" stroke-width=".26458" style="line-height:1.25" xml:space="preserve"><tspan x="160.53162" y="121.28831"/><tspan x="160.53162" y="126.57997"/></text><text x="45.352631" y="66.334763" font-family="serif" font-size="2.6165px" stroke-width=".16353" style="line-height:1.25" xml:space="preserve"><tspan x="45.352631" y="66.334763">Can split to</tspan><tspan x="45.352631" y="69.919983"><tspan font-style="italic" stroke-width=".16353">integer</tspan> + <tspan font-style="italic" stroke-width=".16353">fraction</tspan></tspan></text><path d="m116.02 53.334" fill="none" stroke="#000" stroke-width=".16353px"/><g transform="translate(42.608 23.283)"><rect x="180.24" y="28.812" width="20.788" height="6.3045" ry="1.4987" fill="#faf2cc" stroke="#000" stroke-width=".12705"/><text x="182.07057" y="33.668781" fill="#000000" font-family="'Ubuntu Mono'" font-size="4.3608px" font-weight="bold" stroke-width=".16353" style="line-height:1.25" xml:space="preserve"><tspan x="182.07057" y="33.668781" fill="#000000" font-family="'Ubuntu Mono'" font-weight="bold" stroke-width=".16353">Integral</tspan></text></g><text x="205.87199" y="57.102642" font-family="serif" font-size="4.3608px" stroke-width=".16353" style="line-height:1.25" xml:space="preserve"><tspan x="205.87199" y="57.102642" font-family="serif" stroke-width=".16353">but not</tspan></text><text x="205.87198" y="104.72768" font-family="serif" font-size="4.3608px" stroke-width=".16353" style="line-height:1.25" xml:space="preserve"><tspan x="205.87198" y="104.72768" font-family="serif" stroke-width=".16353">but not</tspan></text><g transform="matrix(.61807 0 0 .61807 158.86 17.067)"><rect x="103.53" y="133.73" width="35.165" height="10.429" ry="2.4248" fill="#faf2cc" stroke="#000" stroke-width=".20556"/><text x="106.42176" y="141.58624" font-family="'Ubuntu Mono'" font-size="7.0556px" font-weight="bold" stroke-width=".26458" style="line-height:1.25" xml:space="preserve"><tspan x="106.42176" y="141.58624" font-family="'Ubuntu Mono'" font-weight="bold" stroke-width=".26458">Floating</tspan></text></g><g transform="translate(3.7042 -28.575)"><text x="202.16779" y="47.048473" font-family="serif" font-size="4.3608px" stroke-width=".16353" style="line-height:1.25" xml:space="preserve"><tspan x="202.16779" y="47.048473" font-family="serif" stroke-width=".16353">but not</tspan></text><g transform="matrix(.61807 0 0 .61807 156.79 8.4899)"><rect x="100.88" y="54.285" width="40.452" height="10.2" ry="2.4248" fill="#faf2cc" stroke="#000" stroke-width=".20556"/><text x="103.77837" y="62.37928" font-family="'Ubuntu Mono'" font-size="7.0556px" font-weight="bold" stroke-width=".26458" style="line-height:1.25" xml:space="preserve"><tspan x="103.77837" y="62.37928" font-family="'Ubuntu Mono'" font-weight="bold" stroke-width=".26458">Fractional</tspan></text></g><g transform="translate(0 13.229)"><rect x="180.24" y="28.812" width="20.788" height="6.3045" ry="1.4987" fill="#faf2cc" stroke="#000" stroke-width=".12705"/><text x="182.07057" y="33.668781" fill="#000000" font-family="'Ubuntu Mono'" font-size="4.3608px" font-weight="bold" stroke-width=".16353" style="line-height:1.25" xml:space="preserve"><tspan x="182.07057" y="33.668781" fill="#000000" font-family="'Ubuntu Mono'" font-weight="bold" stroke-width=".16353">Integral</tspan></text></g></g><rect x="61.283" y="85.742" width="23.389" height="6.4459" ry="1.4987" fill="#faf2cc" stroke="#000" stroke-width=".12705"/><g stroke-width=".16353"><text x="63.071903" y="90.069382" font-family="'Ubuntu Mono'" font-size="4.3608px" font-weight="bold" style="line-height:1.25" xml:space="preserve"><tspan x="63.071903" y="90.069382" font-family="'Ubuntu Mono'" font-weight="bold" stroke-width=".16353">RealFloat</tspan></text><text x="153.01123" y="7.7933955" fill="#008000" font-family="'Ubuntu Mono'" font-size="4.3608px" font-weight="bold" style="line-height:1.25" xml:space="preserve"><tspan x="153.01123" y="7.7933955">Integer</tspan><tspan x="153.01123" y="13.244432">Int</tspan><tspan x="153.01123" y="18.695471">Int32</tspan></text><text x="172.00531" y="18.690411" font-family="serif" font-size="4.3608px" style="line-height:1.25" xml:space="preserve"><tspan x="172.00531" y="18.690411" font-family="serif" stroke-width=".16353">are</tspan></text><text x="154.91585" y="51.656673" fill="#008000" font-family="'Ubuntu Mono'" font-size="4.3608px" font-weight="bold" style="line-height:1.25" xml:space="preserve"><tspan x="154.91585" y="51.656673">Double</tspan><tspan x="154.91585" y="57.107712">Float</tspan></text><text x="172.00531" y="57.10265" font-family="serif" font-size="4.3608px" style="line-height:1.25" xml:space="preserve"><tspan x="172.00531" y="57.10265" font-family="serif" stroke-width=".16353">are</tspan></text><text x="152.28221" y="104.57716" fill="#008000" font-family="'Ubuntu Mono'" font-size="4.3608px" font-weight="bold" style="line-height:1.25" xml:space="preserve"><tspan x="152.28221" y="104.57716" fill="#008000" font-family="'Ubuntu Mono'" font-weight="bold" stroke-width=".16353">Rational</tspan></text><text x="172.00531" y="104.7277" font-family="serif" font-size="4.3608px" style="line-height:1.25" xml:space="preserve"><tspan x="172.00531" y="104.7277" font-family="serif" stroke-width=".16353">is</tspan></text></g><g transform="translate(14.287 -5.2461)"><rect x="177.52" y="12.408" width="12.925" height="6.3045" ry="1.4987" fill="#faf2cc" stroke="#000" stroke-width=".12705"/><text x="179.34996" y="17.415152" font-family="'Ubuntu Mono'" font-size="4.3608px" font-weight="bold" stroke-width=".16353" style="line-height:1.25" xml:space="preserve"><tspan x="179.34996" y="17.415152" font-family="'Ubuntu Mono'" font-weight="bold" stroke-width=".16353">Real</tspan></text></g><g transform="matrix(.61807 0 0 .61807 76.834 -30.777)"><g transform="translate(65.565 .35338)"><rect x="103.53" y="133.73" width="37.842" height="10.429" ry="2.4248" fill="#faf2cc" stroke="#000" stroke-width=".20556"/><text x="106.42176" y="140.73009" font-family="'Ubuntu Mono'" font-size="7.0556px" font-weight="bold" stroke-width=".26458" style="line-height:1.25" xml:space="preserve"><tspan x="106.42176" y="140.73009" font-family="'Ubuntu Mono'" font-weight="bold" stroke-width=".26458">RealFloat</tspan></text></g></g><g transform="matrix(.61807 0 0 .61807 119.01 -37.004)"><rect x="103.53" y="133.73" width="35.165" height="10.429" ry="2.4248" fill="#faf2cc" stroke="#000" stroke-width=".20556"/><text x="106.42176" y="141.58624" font-family="'Ubuntu Mono'" font-size="7.0556px" font-weight="bold" stroke-width=".26458" style="line-height:1.25" xml:space="preserve"><tspan x="106.42176" y="141.58624" font-family="'Ubuntu Mono'" font-weight="bold" stroke-width=".26458">Floating</tspan></text></g><g transform="matrix(.61807 0 0 .61807 117.38 -.51072)"><rect x="100.88" y="54.285" width="40.452" height="10.2" ry="2.4248" fill="#faf2cc" stroke="#000" stroke-width=".20556"/><text x="103.77837" y="62.37928" font-family="'Ubuntu Mono'" font-size="7.0556px" font-weight="bold" stroke-width=".26458" style="line-height:1.25" xml:space="preserve"><tspan x="103.77837" y="62.37928" font-family="'Ubuntu Mono'" font-weight="bold" stroke-width=".26458">Fractional</tspan></text></g><g transform="matrix(.61807 0 0 .61807 119.36 -20.536)"><rect x="104.1" y="96.885" width="34.03" height="10.2" ry="2.4248" fill="#faf2cc" stroke="#000" stroke-width=".20556"/><text x="107.05309" y="104.99411" font-family="'Ubuntu Mono'" font-size="7.0556px" font-weight="bold" stroke-width=".26458" style="line-height:1.25" xml:space="preserve"><tspan x="107.05309" y="104.99411" font-family="'Ubuntu Mono'" font-weight="bold" stroke-width=".26458">RealFrac</tspan></text></g><g transform="translate(14.288 14.328)"><rect x="177.52" y="12.408" width="12.925" height="6.3045" ry="1.4987" fill="#faf2cc" stroke="#000" stroke-width=".12705"/><text x="179.34996" y="17.415152" font-family="'Ubuntu Mono'" font-size="4.3608px" font-weight="bold" stroke-width=".16353" style="line-height:1.25" xml:space="preserve"><tspan x="179.34996" y="17.415152" font-family="'Ubuntu Mono'" font-weight="bold" stroke-width=".16353">Real</tspan></text></g><g stroke-width=".16353"><text x="205.87199" y="77.740143" font-family="serif" font-size="4.3608px" style="line-height:1.25" xml:space="preserve"><tspan x="205.87199" y="77.740143" font-family="serif" stroke-width=".16353">but not</tspan></text><text x="139.2085" y="77.58963" fill="#008000" font-family="'Ubuntu Mono'" font-size="4.3608px" font-weight="bold" style="line-height:1.25" xml:space="preserve"><tspan x="139.2085" y="77.58963" fill="#008000" font-family="'Ubuntu Mono'" font-weight="bold" stroke-width=".16353">Complex Double</tspan></text><text x="172.00531" y="77.740143" font-family="serif" font-size="4.3608px" style="line-height:1.25" xml:space="preserve"><tspan x="172.00531" y="77.740143" font-family="serif" stroke-width=".16353">is</tspan></text></g><g transform="matrix(.61807 0 0 .61807 119.01 -9.9206)"><rect x="103.53" y="133.73" width="35.165" height="10.429" ry="2.4248" fill="#faf2cc" stroke="#000" stroke-width=".20556"/><text x="106.42176" y="141.58624" font-family="'Ubuntu Mono'" font-size="7.0556px" font-weight="bold" stroke-width=".26458" style="line-height:1.25" xml:space="preserve"><tspan x="106.42176" y="141.58624" font-family="'Ubuntu Mono'" font-weight="bold" stroke-width=".26458">Floating</tspan></text></g><g transform="matrix(.61807 0 0 .61807 117.38 32.877)"><rect x="100.88" y="54.285" width="40.452" height="10.2" ry="2.4248" fill="#faf2cc" stroke="#000" stroke-width=".20556"/><text x="103.77837" y="62.37928" font-family="'Ubuntu Mono'" font-size="7.0556px" font-weight="bold" stroke-width=".26458" style="line-height:1.25" xml:space="preserve"><tspan x="103.77837" y="62.37928" font-family="'Ubuntu Mono'" font-weight="bold" stroke-width=".26458">Fractional</tspan></text></g><g transform="translate(45.329 60.325)"><rect x="177.52" y="12.408" width="12.925" height="6.3045" ry="1.4987" fill="#faf2cc" stroke="#000" stroke-width=".12705"/><text x="179.34996" y="17.415152" font-family="'Ubuntu Mono'" font-size="4.3608px" font-weight="bold" stroke-width=".16353" style="line-height:1.25" xml:space="preserve"><tspan x="179.34996" y="17.415152" font-family="'Ubuntu Mono'" font-weight="bold" stroke-width=".16353">Real</tspan></text></g><g transform="matrix(.61807 0 0 .61807 117.38 59.865)"><rect x="100.88" y="54.285" width="40.452" height="10.2" ry="2.4248" fill="#faf2cc" stroke="#000" stroke-width=".20556"/><text x="103.77837" y="62.37928" font-family="'Ubuntu Mono'" font-size="7.0556px" font-weight="bold" stroke-width=".26458" style="line-height:1.25" xml:space="preserve"><tspan x="103.77837" y="62.37928" font-family="'Ubuntu Mono'" font-weight="bold" stroke-width=".26458">Fractional</tspan></text></g><g transform="matrix(.61807 0 0 .61807 119.36 39.839)"><rect x="104.1" y="96.885" width="34.03" height="10.2" ry="2.4248" fill="#faf2cc" stroke="#000" stroke-width=".20556"/><text x="107.05309" y="104.99411" font-family="'Ubuntu Mono'" font-size="7.0556px" font-weight="bold" stroke-width=".26458" style="line-height:1.25" xml:space="preserve"><tspan x="107.05309" y="104.99411" font-family="'Ubuntu Mono'" font-weight="bold" stroke-width=".26458">RealFrac</tspan></text></g><g transform="translate(14.288 74.704)"><rect x="177.52" y="12.408" width="12.925" height="6.3045" ry="1.4987" fill="#faf2cc" stroke="#000" stroke-width=".12705"/><text x="179.34996" y="17.415152" font-family="'Ubuntu Mono'" font-size="4.3608px" font-weight="bold" stroke-width=".16353" style="line-height:1.25" xml:space="preserve"><tspan x="179.34996" y="17.415152" font-family="'Ubuntu Mono'" font-weight="bold" stroke-width=".16353">Real</tspan></text></g><g fill="#008000" font-family="'Ubuntu Mono'" font-size="4.3608px" font-weight="bold" stroke-width=".16353"><text x="30.450111" y="131.97261" style="line-height:1.25" xml:space="preserve"><tspan x="30.450111" y="131.97261" fill="#008000" font-family="'Ubuntu Mono'" font-weight="bold" stroke-width=".16353">Integer</tspan></text><text x="32.604359" y="138.99153" style="line-height:1.25" xml:space="preserve"><tspan x="32.604359" y="138.99153" fill="#008000" font-family="'Ubuntu Mono'" font-weight="bold" stroke-width=".16353">Double</tspan></text><text x="28.234814" y="152.34909" style="line-height:1.25" xml:space="preserve"><tspan x="28.234814" y="152.34909" fill="#008000" font-family="'Ubuntu Mono'" font-weight="bold" stroke-width=".16353">Rational</tspan></text><text x="15.161066" y="145.6834" style="line-height:1.25" xml:space="preserve"><tspan x="15.161066" y="145.6834" fill="#008000" font-family="'Ubuntu Mono'" font-weight="bold" stroke-width=".16353">Complex Double</tspan></text></g><g fill="#663600" stroke-width=".26458"><g transform="translate(1.5102 -11.989)" aria-label="☑"><path d="m53.033 140.77h4.0211l0.01654 0.0165v4.079l-0.01654 0.0193h-4.0211l-0.01654-0.0193v-4.079zm0.28939 0.30317v3.5057h3.4396v-3.5057zm3.0675 0.43546v0.0165c-0.13964 0.11943-0.24713 0.23243-0.32246 0.339-0.60082 0.81213-0.9582 1.5149-1.0721 2.1084-0.01103 0.10841-0.03124 0.16261-0.06063 0.16261-0.21497 0.0863-0.3344 0.12953-0.35829 0.12953-0.18558-0.47405-0.4667-0.71107-0.84336-0.71107h-0.06339v-0.0193l0.44648-0.20119c0.27744 0 0.48323 0.12035 0.61736 0.36104h0.01654c0.19548-0.67838 0.61494-1.3045 1.0115-1.7859 0.17823-0.22049 0.38769-0.3537 0.62838-0.39963z" fill="#663600" stroke-width=".26458"/></g><g transform="translate(1.5102 -5.073)" aria-label="☑"><path d="m53.033 140.77h4.0211l0.01654 0.0165v4.079l-0.01654 0.0193h-4.0211l-0.01654-0.0193v-4.079zm0.28939 0.30317v3.5057h3.4396v-3.5057zm3.0675 0.43546v0.0165c-0.13964 0.11943-0.24713 0.23243-0.32246 0.339-0.60082 0.81213-0.9582 1.5149-1.0721 2.1084-0.01103 0.10841-0.03124 0.16261-0.06063 0.16261-0.21497 0.0863-0.3344 0.12953-0.35829 0.12953-0.18558-0.47405-0.4667-0.71107-0.84336-0.71107h-0.06339v-0.0193l0.44648-0.20119c0.27744 0 0.48323 0.12035 0.61736 0.36104h0.01654c0.19548-0.67838 0.61494-1.3045 1.0115-1.7859 0.17823-0.22049 0.38769-0.3537 0.62838-0.39963z" fill="#663600" stroke-width=".26458"/></g><g transform="translate(1.5102 1.617)" aria-label="☑"><path d="m53.033 140.77h4.0211l0.01654 0.0165v4.079l-0.01654 0.0193h-4.0211l-0.01654-0.0193v-4.079zm0.28939 0.30317v3.5057h3.4396v-3.5057zm3.0675 0.43546v0.0165c-0.13964 0.11943-0.24713 0.23243-0.32246 0.339-0.60082 0.81213-0.9582 1.5149-1.0721 2.1084-0.01103 0.10841-0.03124 0.16261-0.06063 0.16261-0.21497 0.0863-0.3344 0.12953-0.35829 0.12953-0.18558-0.47405-0.4667-0.71107-0.84336-0.71107h-0.06339v-0.0193l0.44648-0.20119c0.27744 0 0.48323 0.12035 0.61736 0.36104h0.01654c0.19548-0.67838 0.61494-1.3045 1.0115-1.7859 0.17823-0.22049 0.38769-0.3537 0.62838-0.39963z" fill="#663600" stroke-width=".26458"/></g><g transform="translate(1.5102 8.3359)" aria-label="☑"><path d="m53.033 140.77h4.0211l0.01654 0.0165v4.079l-0.01654 0.0193h-4.0211l-0.01654-0.0193v-4.079zm0.28939 0.30317v3.5057h3.4396v-3.5057zm3.0675 0.43546v0.0165c-0.13964 0.11943-0.24713 0.23243-0.32246 0.339-0.60082 0.81213-0.9582 1.5149-1.0721 2.1084-0.01103 0.10841-0.03124 0.16261-0.06063 0.16261-0.21497 0.0863-0.3344 0.12953-0.35829 0.12953-0.18558-0.47405-0.4667-0.71107-0.84336-0.71107h-0.06339v-0.0193l0.44648-0.20119c0.27744 0 0.48323 0.12035 0.61736 0.36104h0.01654c0.19548-0.67838 0.61494-1.3045 1.0115-1.7859 0.17823-0.22049 0.38769-0.3537 0.62838-0.39963z" fill="#663600" stroke-width=".26458"/></g></g><g transform="matrix(.61807 0 0 .61807 -18.3 107.79)"><rect x="112.46" y="19.175" width="17.296" height="10.27" ry="2.4414" fill="#faf2cc" stroke="#000" stroke-width=".20626"/><g transform="translate(14.51 1.1696)"><text x="101.23174" y="25.442904" font-family="'Ubuntu Mono'" font-size="7.0556px" font-weight="bold" stroke-width=".26458" style="line-height:1.25" xml:space="preserve"><tspan x="101.23174" y="25.442904" font-family="'Ubuntu Mono'" font-weight="bold" stroke-width=".26458">Num</tspan></text></g></g><g fill="#ef7d00" stroke-width=".26458"><g transform="translate(1.5102 -11.989)" aria-label="☑"><path d="m53.033 140.77h4.0211l0.01654 0.0165v4.079l-0.01654 0.0193h-4.0211l-0.01654-0.0193v-4.079zm0.28939 0.30317v3.5057h3.4396v-3.5057zm3.0675 0.43546v0.0165c-0.13964 0.11943-0.24713 0.23243-0.32246 0.339-0.60082 0.81213-0.9582 1.5149-1.0721 2.1084-0.01103 0.10841-0.03124 0.16261-0.06063 0.16261-0.21497 0.0863-0.3344 0.12953-0.35829 0.12953-0.18558-0.47405-0.4667-0.71107-0.84336-0.71107h-0.06339v-0.0193l0.44648-0.20119c0.27744 0 0.48323 0.12035 0.61736 0.36104h0.01654c0.19548-0.67838 0.61494-1.3045 1.0115-1.7859 0.17823-0.22049 0.38769-0.3537 0.62838-0.39963z" fill="#ef7d00" stroke-width=".26458"/></g><g transform="translate(1.5102 -5.073)" aria-label="☑"><path d="m53.033 140.77h4.0211l0.01654 0.0165v4.079l-0.01654 0.0193h-4.0211l-0.01654-0.0193v-4.079zm0.28939 0.30317v3.5057h3.4396v-3.5057zm3.0675 0.43546v0.0165c-0.13964 0.11943-0.24713 0.23243-0.32246 0.339-0.60082 0.81213-0.9582 1.5149-1.0721 2.1084-0.01103 0.10841-0.03124 0.16261-0.06063 0.16261-0.21497 0.0863-0.3344 0.12953-0.35829 0.12953-0.18558-0.47405-0.4667-0.71107-0.84336-0.71107h-0.06339v-0.0193l0.44648-0.20119c0.27744 0 0.48323 0.12035 0.61736 0.36104h0.01654c0.19548-0.67838 0.61494-1.3045 1.0115-1.7859 0.17823-0.22049 0.38769-0.3537 0.62838-0.39963z" fill="#ef7d00" stroke-width=".26458"/></g><g transform="translate(1.5102 1.617)" aria-label="☑"><path d="m53.033 140.77h4.0211l0.01654 0.0165v4.079l-0.01654 0.0193h-4.0211l-0.01654-0.0193v-4.079zm0.28939 0.30317v3.5057h3.4396v-3.5057zm3.0675 0.43546v0.0165c-0.13964 0.11943-0.24713 0.23243-0.32246 0.339-0.60082 0.81213-0.9582 1.5149-1.0721 2.1084-0.01103 0.10841-0.03124 0.16261-0.06063 0.16261-0.21497 0.0863-0.3344 0.12953-0.35829 0.12953-0.18558-0.47405-0.4667-0.71107-0.84336-0.71107h-0.06339v-0.0193l0.44648-0.20119c0.27744 0 0.48323 0.12035 0.61736 0.36104h0.01654c0.19548-0.67838 0.61494-1.3045 1.0115-1.7859 0.17823-0.22049 0.38769-0.3537 0.62838-0.39963z" fill="#ef7d00" stroke-width=".26458"/></g><g transform="translate(1.5102 8.3359)" aria-label="☑"><path d="m53.033 140.77h4.0211l0.01654 0.0165v4.079l-0.01654 0.0193h-4.0211l-0.01654-0.0193v-4.079zm0.28939 0.30317v3.5057h3.4396v-3.5057zm3.0675 0.43546v0.0165c-0.13964 0.11943-0.24713 0.23243-0.32246 0.339-0.60082 0.81213-0.9582 1.5149-1.0721 2.1084-0.01103 0.10841-0.03124 0.16261-0.06063 0.16261-0.21497 0.0863-0.3344 0.12953-0.35829 0.12953-0.18558-0.47405-0.4667-0.71107-0.84336-0.71107h-0.06339v-0.0193l0.44648-0.20119c0.27744 0 0.48323 0.12035 0.61736 0.36104h0.01654c0.19548-0.67838 0.61494-1.3045 1.0115-1.7859 0.17823-0.22049 0.38769-0.3537 0.62838-0.39963z" fill="#ef7d00" stroke-width=".26458"/></g></g><g transform="translate(-11.55)"><g fill="#663600" stroke-width=".26458"><g transform="translate(87.139 -11.989)" aria-label="☑"><path d="m53.033 140.77h4.0211l0.01654 0.0165v4.079l-0.01654 0.0193h-4.0211l-0.01654-0.0193v-4.079zm0.28939 0.30317v3.5057h3.4396v-3.5057zm3.0675 0.43546v0.0165c-0.13964 0.11943-0.24713 0.23243-0.32246 0.339-0.60082 0.81213-0.9582 1.5149-1.0721 2.1084-0.01103 0.10841-0.03124 0.16261-0.06063 0.16261-0.21497 0.0863-0.3344 0.12953-0.35829 0.12953-0.18558-0.47405-0.4667-0.71107-0.84336-0.71107h-0.06339v-0.0193l0.44648-0.20119c0.27744 0 0.48323 0.12035 0.61736 0.36104h0.01654c0.19548-0.67838 0.61494-1.3045 1.0115-1.7859 0.17823-0.22049 0.38769-0.3537 0.62838-0.39963z" fill="#663600" stroke-width=".26458"/></g><g transform="translate(87.139 -5.073)" aria-label="☑"><path d="m53.033 140.77h4.0211l0.01654 0.0165v4.079l-0.01654 0.0193h-4.0211l-0.01654-0.0193v-4.079zm0.28939 0.30317v3.5057h3.4396v-3.5057zm3.0675 0.43546v0.0165c-0.13964 0.11943-0.24713 0.23243-0.32246 0.339-0.60082 0.81213-0.9582 1.5149-1.0721 2.1084-0.01103 0.10841-0.03124 0.16261-0.06063 0.16261-0.21497 0.0863-0.3344 0.12953-0.35829 0.12953-0.18558-0.47405-0.4667-0.71107-0.84336-0.71107h-0.06339v-0.0193l0.44648-0.20119c0.27744 0 0.48323 0.12035 0.61736 0.36104h0.01654c0.19548-0.67838 0.61494-1.3045 1.0115-1.7859 0.17823-0.22049 0.38769-0.3537 0.62838-0.39963z" fill="#663600" stroke-width=".26458"/></g><g transform="translate(87.139 8.3359)" aria-label="☑"><path d="m53.033 140.77h4.0211l0.01654 0.0165v4.079l-0.01654 0.0193h-4.0211l-0.01654-0.0193v-4.079zm0.28939 0.30317v3.5057h3.4396v-3.5057zm3.0675 0.43546v0.0165c-0.13964 0.11943-0.24713 0.23243-0.32246 0.339-0.60082 0.81213-0.9582 1.5149-1.0721 2.1084-0.01103 0.10841-0.03124 0.16261-0.06063 0.16261-0.21497 0.0863-0.3344 0.12953-0.35829 0.12953-0.18558-0.47405-0.4667-0.71107-0.84336-0.71107h-0.06339v-0.0193l0.44648-0.20119c0.27744 0 0.48323 0.12035 0.61736 0.36104h0.01654c0.19548-0.67838 0.61494-1.3045 1.0115-1.7859 0.17823-0.22049 0.38769-0.3537 0.62838-0.39963z" fill="#663600" stroke-width=".26458"/></g></g><g transform="matrix(.61807 0 0 .61807 24.988 86.269)"><rect x="179.16" y="53.99" width="20.912" height="10.2" ry="2.4248" fill="#faf2cc" stroke="#000" stroke-width=".20556"/><text x="182.11702" y="62.098892" font-family="'Ubuntu Mono'" font-size="7.0556px" font-weight="bold" stroke-width=".26458" style="line-height:1.25" xml:space="preserve"><tspan x="182.11702" y="62.098892" font-family="'Ubuntu Mono'" font-weight="bold" stroke-width=".26458">Real</tspan></text></g><path d="m140.17 142.38h4.0211l0.0165 0.0165v4.079l-0.0165 0.0193h-4.0211l-0.0165-0.0193v-4.079zm0.28939 0.30317v3.5057h3.4396v-3.5057z" stroke-width=".26458"/><g fill="#ef7d00" stroke-width=".26458"><g transform="translate(87.139 -11.989)" aria-label="☑"><path d="m53.033 140.77h4.0211l0.01654 0.0165v4.079l-0.01654 0.0193h-4.0211l-0.01654-0.0193v-4.079zm0.28939 0.30317v3.5057h3.4396v-3.5057zm3.0675 0.43546v0.0165c-0.13964 0.11943-0.24713 0.23243-0.32246 0.339-0.60082 0.81213-0.9582 1.5149-1.0721 2.1084-0.01103 0.10841-0.03124 0.16261-0.06063 0.16261-0.21497 0.0863-0.3344 0.12953-0.35829 0.12953-0.18558-0.47405-0.4667-0.71107-0.84336-0.71107h-0.06339v-0.0193l0.44648-0.20119c0.27744 0 0.48323 0.12035 0.61736 0.36104h0.01654c0.19548-0.67838 0.61494-1.3045 1.0115-1.7859 0.17823-0.22049 0.38769-0.3537 0.62838-0.39963z" fill="#ef7d00" stroke-width=".26458"/></g><g transform="translate(87.139 -5.073)" aria-label="☑"><path d="m53.033 140.77h4.0211l0.01654 0.0165v4.079l-0.01654 0.0193h-4.0211l-0.01654-0.0193v-4.079zm0.28939 0.30317v3.5057h3.4396v-3.5057zm3.0675 0.43546v0.0165c-0.13964 0.11943-0.24713 0.23243-0.32246 0.339-0.60082 0.81213-0.9582 1.5149-1.0721 2.1084-0.01103 0.10841-0.03124 0.16261-0.06063 0.16261-0.21497 0.0863-0.3344 0.12953-0.35829 0.12953-0.18558-0.47405-0.4667-0.71107-0.84336-0.71107h-0.06339v-0.0193l0.44648-0.20119c0.27744 0 0.48323 0.12035 0.61736 0.36104h0.01654c0.19548-0.67838 0.61494-1.3045 1.0115-1.7859 0.17823-0.22049 0.38769-0.3537 0.62838-0.39963z" fill="#ef7d00" stroke-width=".26458"/></g><g transform="translate(87.139 8.3359)" aria-label="☑"><path d="m53.033 140.77h4.0211l0.01654 0.0165v4.079l-0.01654 0.0193h-4.0211l-0.01654-0.0193v-4.079zm0.28939 0.30317v3.5057h3.4396v-3.5057zm3.0675 0.43546v0.0165c-0.13964 0.11943-0.24713 0.23243-0.32246 0.339-0.60082 0.81213-0.9582 1.5149-1.0721 2.1084-0.01103 0.10841-0.03124 0.16261-0.06063 0.16261-0.21497 0.0863-0.3344 0.12953-0.35829 0.12953-0.18558-0.47405-0.4667-0.71107-0.84336-0.71107h-0.06339v-0.0193l0.44648-0.20119c0.27744 0 0.48323 0.12035 0.61736 0.36104h0.01654c0.19548-0.67838 0.61494-1.3045 1.0115-1.7859 0.17823-0.22049 0.38769-0.3537 0.62838-0.39963z" fill="#ef7d00" stroke-width=".26458"/></g></g></g><g transform="translate(-12.515)"><g fill="#663600" stroke-width=".26458"><g transform="translate(37.049 -5.073)" aria-label="☑"><path d="m53.033 140.77h4.0211l0.01654 0.0165v4.079l-0.01654 0.0193h-4.0211l-0.01654-0.0193v-4.079zm0.28939 0.30317v3.5057h3.4396v-3.5057zm3.0675 0.43546v0.0165c-0.13964 0.11943-0.24713 0.23243-0.32246 0.339-0.60082 0.81213-0.9582 1.5149-1.0721 2.1084-0.01103 0.10841-0.03124 0.16261-0.06063 0.16261-0.21497 0.0863-0.3344 0.12953-0.35829 0.12953-0.18558-0.47405-0.4667-0.71107-0.84336-0.71107h-0.06339v-0.0193l0.44648-0.20119c0.27744 0 0.48323 0.12035 0.61736 0.36104h0.01654c0.19548-0.67838 0.61494-1.3045 1.0115-1.7859 0.17823-0.22049 0.38769-0.3537 0.62838-0.39963z" fill="#663600" stroke-width=".26458"/></g><g transform="translate(37.049 1.617)" aria-label="☑"><path d="m53.033 140.77h4.0211l0.01654 0.0165v4.079l-0.01654 0.0193h-4.0211l-0.01654-0.0193v-4.079zm0.28939 0.30317v3.5057h3.4396v-3.5057zm3.0675 0.43546v0.0165c-0.13964 0.11943-0.24713 0.23243-0.32246 0.339-0.60082 0.81213-0.9582 1.5149-1.0721 2.1084-0.01103 0.10841-0.03124 0.16261-0.06063 0.16261-0.21497 0.0863-0.3344 0.12953-0.35829 0.12953-0.18558-0.47405-0.4667-0.71107-0.84336-0.71107h-0.06339v-0.0193l0.44648-0.20119c0.27744 0 0.48323 0.12035 0.61736 0.36104h0.01654c0.19548-0.67838 0.61494-1.3045 1.0115-1.7859 0.17823-0.22049 0.38769-0.3537 0.62838-0.39963z" fill="#663600" stroke-width=".26458"/></g><g transform="translate(37.049 8.3359)" aria-label="☑"><path d="m53.033 140.77h4.0211l0.01654 0.0165v4.079l-0.01654 0.0193h-4.0211l-0.01654-0.0193v-4.079zm0.28939 0.30317v3.5057h3.4396v-3.5057zm3.0675 0.43546v0.0165c-0.13964 0.11943-0.24713 0.23243-0.32246 0.339-0.60082 0.81213-0.9582 1.5149-1.0721 2.1084-0.01103 0.10841-0.03124 0.16261-0.06063 0.16261-0.21497 0.0863-0.3344 0.12953-0.35829 0.12953-0.18558-0.47405-0.4667-0.71107-0.84336-0.71107h-0.06339v-0.0193l0.44648-0.20119c0.27744 0 0.48323 0.12035 0.61736 0.36104h0.01654c0.19548-0.67838 0.61494-1.3045 1.0115-1.7859 0.17823-0.22049 0.38769-0.3537 0.62838-0.39963z" fill="#663600" stroke-width=".26458"/></g></g><g transform="matrix(.61807 0 0 .61807 17.239 86.087)"><rect x="100.88" y="54.285" width="40.452" height="10.2" ry="2.4248" fill="#faf2cc" stroke="#000" stroke-width=".20556"/><text x="103.77837" y="62.37928" font-family="'Ubuntu Mono'" font-size="7.0556px" font-weight="bold" stroke-width=".26458" style="line-height:1.25" xml:space="preserve"><tspan x="103.77837" y="62.37928" font-family="'Ubuntu Mono'" font-weight="bold" stroke-width=".26458">Fractional</tspan></text></g><g fill="#ef7d00" stroke-width=".26458"><g transform="translate(37.049 -5.073)" aria-label="☑"><path d="m53.033 140.77h4.0211l0.01654 0.0165v4.079l-0.01654 0.0193h-4.0211l-0.01654-0.0193v-4.079zm0.28939 0.30317v3.5057h3.4396v-3.5057zm3.0675 0.43546v0.0165c-0.13964 0.11943-0.24713 0.23243-0.32246 0.339-0.60082 0.81213-0.9582 1.5149-1.0721 2.1084-0.01103 0.10841-0.03124 0.16261-0.06063 0.16261-0.21497 0.0863-0.3344 0.12953-0.35829 0.12953-0.18558-0.47405-0.4667-0.71107-0.84336-0.71107h-0.06339v-0.0193l0.44648-0.20119c0.27744 0 0.48323 0.12035 0.61736 0.36104h0.01654c0.19548-0.67838 0.61494-1.3045 1.0115-1.7859 0.17823-0.22049 0.38769-0.3537 0.62838-0.39963z" fill="#ef7d00" stroke-width=".26458"/></g><g transform="translate(37.049 1.617)" aria-label="☑"><path d="m53.033 140.77h4.0211l0.01654 0.0165v4.079l-0.01654 0.0193h-4.0211l-0.01654-0.0193v-4.079zm0.28939 0.30317v3.5057h3.4396v-3.5057zm3.0675 0.43546v0.0165c-0.13964 0.11943-0.24713 0.23243-0.32246 0.339-0.60082 0.81213-0.9582 1.5149-1.0721 2.1084-0.01103 0.10841-0.03124 0.16261-0.06063 0.16261-0.21497 0.0863-0.3344 0.12953-0.35829 0.12953-0.18558-0.47405-0.4667-0.71107-0.84336-0.71107h-0.06339v-0.0193l0.44648-0.20119c0.27744 0 0.48323 0.12035 0.61736 0.36104h0.01654c0.19548-0.67838 0.61494-1.3045 1.0115-1.7859 0.17823-0.22049 0.38769-0.3537 0.62838-0.39963z" fill="#ef7d00" stroke-width=".26458"/></g><g transform="translate(37.049 8.3359)" aria-label="☑"><path d="m53.033 140.77h4.0211l0.01654 0.0165v4.079l-0.01654 0.0193h-4.0211l-0.01654-0.0193v-4.079zm0.28939 0.30317v3.5057h3.4396v-3.5057zm3.0675 0.43546v0.0165c-0.13964 0.11943-0.24713 0.23243-0.32246 0.339-0.60082 0.81213-0.9582 1.5149-1.0721 2.1084-0.01103 0.10841-0.03124 0.16261-0.06063 0.16261-0.21497 0.0863-0.3344 0.12953-0.35829 0.12953-0.18558-0.47405-0.4667-0.71107-0.84336-0.71107h-0.06339v-0.0193l0.44648-0.20119c0.27744 0 0.48323 0.12035 0.61736 0.36104h0.01654c0.19548-0.67838 0.61494-1.3045 1.0115-1.7859 0.17823-0.22049 0.38769-0.3537 0.62838-0.39963z" fill="#ef7d00" stroke-width=".26458"/></g></g><path d="m90.083 128.78h4.0211l0.01654 0.0165v4.079l-0.01654 0.0193h-4.0211l-0.01654-0.0193v-4.079zm0.28939 0.30317v3.5057h3.4396v-3.5057z" stroke-width=".26458"/></g><g transform="translate(-13.229)"><g transform="translate(165.52 -11.989)" fill="#663600" stroke-width=".26458" aria-label="☑"><path d="m53.033 140.77h4.0211l0.01654 0.0165v4.079l-0.01654 0.0193h-4.0211l-0.01654-0.0193v-4.079zm0.28939 0.30317v3.5057h3.4396v-3.5057zm3.0675 0.43546v0.0165c-0.13964 0.11943-0.24713 0.23243-0.32246 0.339-0.60082 0.81213-0.9582 1.5149-1.0721 2.1084-0.01103 0.10841-0.03124 0.16261-0.06063 0.16261-0.21497 0.0863-0.3344 0.12953-0.35829 0.12953-0.18558-0.47405-0.4667-0.71107-0.84336-0.71107h-0.06339v-0.0193l0.44648-0.20119c0.27744 0 0.48323 0.12035 0.61736 0.36104h0.01654c0.19548-0.67838 0.61494-1.3045 1.0115-1.7859 0.17823-0.22049 0.38769-0.3537 0.62838-0.39963z" fill="#663600" stroke-width=".26458"/></g><g transform="matrix(.61807 0 0 .61807 183.73 85.961)"><rect x="42.766" y="54.489" width="33.633" height="10.2" ry="2.4248" fill="#faf2cc" stroke="#000" stroke-width=".20556"/><text x="45.723648" y="62.346481" fill="#000000" font-family="'Ubuntu Mono'" font-size="7.0556px" font-weight="bold" stroke-width=".26458" style="line-height:1.25" xml:space="preserve"><tspan x="45.723648" y="62.346481" fill="#000000" font-family="'Ubuntu Mono'" font-weight="bold" stroke-width=".26458">Integral</tspan></text></g><g stroke-width=".26458"><g transform="translate(165.52 -11.989)" fill="#ef7d00" aria-label="☑"><path d="m53.033 140.77h4.0211l0.01654 0.0165v4.079l-0.01654 0.0193h-4.0211l-0.01654-0.0193v-4.079zm0.28939 0.30317v3.5057h3.4396v-3.5057zm3.0675 0.43546v0.0165c-0.13964 0.11943-0.24713 0.23243-0.32246 0.339-0.60082 0.81213-0.9582 1.5149-1.0721 2.1084-0.01103 0.10841-0.03124 0.16261-0.06063 0.16261-0.21497 0.0863-0.3344 0.12953-0.35829 0.12953-0.18558-0.47405-0.4667-0.71107-0.84336-0.71107h-0.06339v-0.0193l0.44648-0.20119c0.27744 0 0.48323 0.12035 0.61736 0.36104h0.01654c0.19548-0.67838 0.61494-1.3045 1.0115-1.7859 0.17823-0.22049 0.38769-0.3537 0.62838-0.39963z" fill="#ef7d00" stroke-width=".26458"/></g><path d="m218.55 135.69h4.0211l0.0165 0.0165v4.079l-0.0165 0.0193h-4.0211l-0.0165-0.0193v-4.079zm0.28939 0.30317v3.5057h3.4396v-3.5057z"/><path d="m218.55 142.38h4.0211l0.0165 0.0165v4.079l-0.0165 0.0193h-4.0211l-0.0165-0.0193v-4.079zm0.28939 0.30317v3.5057h3.4396v-3.5057z"/><path d="m218.55 149.1h4.0211l0.0165 0.0165v4.079l-0.0165 0.0193h-4.0211l-0.0165-0.0193v-4.079zm0.28939 0.30317v3.5057h3.4396v-3.5057z"/></g></g><g transform="translate(-11.725)"><g transform="translate(64.806 -5.073)" fill="#663600" stroke-width=".26458" aria-label="☑"><path d="m53.033 140.77h4.0211l0.01654 0.0165v4.079l-0.01654 0.0193h-4.0211l-0.01654-0.0193v-4.079zm0.28939 0.30317v3.5057h3.4396v-3.5057zm3.0675 0.43546v0.0165c-0.13964 0.11943-0.24713 0.23243-0.32246 0.339-0.60082 0.81213-0.9582 1.5149-1.0721 2.1084-0.01103 0.10841-0.03124 0.16261-0.06063 0.16261-0.21497 0.0863-0.3344 0.12953-0.35829 0.12953-0.18558-0.47405-0.4667-0.71107-0.84336-0.71107h-0.06339v-0.0193l0.44648-0.20119c0.27744 0 0.48323 0.12035 0.61736 0.36104h0.01654c0.19548-0.67838 0.61494-1.3045 1.0115-1.7859 0.17823-0.22049 0.38769-0.3537 0.62838-0.39963z" fill="#663600" stroke-width=".26458"/></g><g transform="translate(64.806 1.617)" fill="#663600" stroke-width=".26458" aria-label="☑"><path d="m53.033 140.77h4.0211l0.01654 0.0165v4.079l-0.01654 0.0193h-4.0211l-0.01654-0.0193v-4.079zm0.28939 0.30317v3.5057h3.4396v-3.5057zm3.0675 0.43546v0.0165c-0.13964 0.11943-0.24713 0.23243-0.32246 0.339-0.60082 0.81213-0.9582 1.5149-1.0721 2.1084-0.01103 0.10841-0.03124 0.16261-0.06063 0.16261-0.21497 0.0863-0.3344 0.12953-0.35829 0.12953-0.18558-0.47405-0.4667-0.71107-0.84336-0.71107h-0.06339v-0.0193l0.44648-0.20119c0.27744 0 0.48323 0.12035 0.61736 0.36104h0.01654c0.19548-0.67838 0.61494-1.3045 1.0115-1.7859 0.17823-0.22049 0.38769-0.3537 0.62838-0.39963z" fill="#663600" stroke-width=".26458"/></g><g transform="matrix(.61807 0 0 .61807 44.996 36.985)"><rect x="103.53" y="133.73" width="35.165" height="10.429" ry="2.4248" fill="#faf2cc" stroke="#000" stroke-width=".20556"/><text x="106.42176" y="141.58624" font-family="'Ubuntu Mono'" font-size="7.0556px" font-weight="bold" stroke-width=".26458" style="line-height:1.25" xml:space="preserve"><tspan x="106.42176" y="141.58624" font-family="'Ubuntu Mono'" font-weight="bold" stroke-width=".26458">Floating</tspan></text></g><g stroke-width=".26458"><g transform="translate(64.806 -5.073)" fill="#ef7d00" aria-label="☑"><path d="m53.033 140.77h4.0211l0.01654 0.0165v4.079l-0.01654 0.0193h-4.0211l-0.01654-0.0193v-4.079zm0.28939 0.30317v3.5057h3.4396v-3.5057zm3.0675 0.43546v0.0165c-0.13964 0.11943-0.24713 0.23243-0.32246 0.339-0.60082 0.81213-0.9582 1.5149-1.0721 2.1084-0.01103 0.10841-0.03124 0.16261-0.06063 0.16261-0.21497 0.0863-0.3344 0.12953-0.35829 0.12953-0.18558-0.47405-0.4667-0.71107-0.84336-0.71107h-0.06339v-0.0193l0.44648-0.20119c0.27744 0 0.48323 0.12035 0.61736 0.36104h0.01654c0.19548-0.67838 0.61494-1.3045 1.0115-1.7859 0.17823-0.22049 0.38769-0.3537 0.62838-0.39963z" fill="#ef7d00" stroke-width=".26458"/></g><g transform="translate(64.806 1.617)" fill="#ef7d00" aria-label="☑"><path d="m53.033 140.77h4.0211l0.01654 0.0165v4.079l-0.01654 0.0193h-4.0211l-0.01654-0.0193v-4.079zm0.28939 0.30317v3.5057h3.4396v-3.5057zm3.0675 0.43546v0.0165c-0.13964 0.11943-0.24713 0.23243-0.32246 0.339-0.60082 0.81213-0.9582 1.5149-1.0721 2.1084-0.01103 0.10841-0.03124 0.16261-0.06063 0.16261-0.21497 0.0863-0.3344 0.12953-0.35829 0.12953-0.18558-0.47405-0.4667-0.71107-0.84336-0.71107h-0.06339v-0.0193l0.44648-0.20119c0.27744 0 0.48323 0.12035 0.61736 0.36104h0.01654c0.19548-0.67838 0.61494-1.3045 1.0115-1.7859 0.17823-0.22049 0.38769-0.3537 0.62838-0.39963z" fill="#ef7d00" stroke-width=".26458"/></g><path d="m117.84 128.78h4.0211l0.0165 0.0165v4.079l-0.0165 0.0193h-4.0211l-0.0165-0.0193v-4.079zm0.28939 0.30317v3.5057h3.4396v-3.5057z"/><path d="m117.84 149.1h4.0211l0.0165 0.0165v4.079l-0.0165 0.0193h-4.0211l-0.0165-0.0193v-4.079zm0.28939 0.30317v3.5057h3.4396v-3.5057z"/></g></g><g transform="translate(-9.3489)"><g transform="translate(107.09 -5.073)" fill="#663600" stroke-width=".26458" aria-label="☑"><path d="m53.033 140.77h4.0211l0.01654 0.0165v4.079l-0.01654 0.0193h-4.0211l-0.01654-0.0193v-4.079zm0.28939 0.30317v3.5057h3.4396v-3.5057zm3.0675 0.43546v0.0165c-0.13964 0.11943-0.24713 0.23243-0.32246 0.339-0.60082 0.81213-0.9582 1.5149-1.0721 2.1084-0.01103 0.10841-0.03124 0.16261-0.06063 0.16261-0.21497 0.0863-0.3344 0.12953-0.35829 0.12953-0.18558-0.47405-0.4667-0.71107-0.84336-0.71107h-0.06339v-0.0193l0.44648-0.20119c0.27744 0 0.48323 0.12035 0.61736 0.36104h0.01654c0.19548-0.67838 0.61494-1.3045 1.0115-1.7859 0.17823-0.22049 0.38769-0.3537 0.62838-0.39963z" fill="#663600" stroke-width=".26458"/></g><g transform="translate(107.09 8.3359)" fill="#663600" stroke-width=".26458" aria-label="☑"><path d="m53.033 140.77h4.0211l0.01654 0.0165v4.079l-0.01654 0.0193h-4.0211l-0.01654-0.0193v-4.079zm0.28939 0.30317v3.5057h3.4396v-3.5057zm3.0675 0.43546v0.0165c-0.13964 0.11943-0.24713 0.23243-0.32246 0.339-0.60082 0.81213-0.9582 1.5149-1.0721 2.1084-0.01103 0.10841-0.03124 0.16261-0.06063 0.16261-0.21497 0.0863-0.3344 0.12953-0.35829 0.12953-0.18558-0.47405-0.4667-0.71107-0.84336-0.71107h-0.06339v-0.0193l0.44648-0.20119c0.27744 0 0.48323 0.12035 0.61736 0.36104h0.01654c0.19548-0.67838 0.61494-1.3045 1.0115-1.7859 0.17823-0.22049 0.38769-0.3537 0.62838-0.39963z" fill="#663600" stroke-width=".26458"/></g><g transform="matrix(.61807 0 0 .61807 87.284 59.757)"><rect x="104.1" y="96.885" width="34.03" height="10.2" ry="2.4248" fill="#faf2cc" stroke="#000" stroke-width=".20556"/><text x="107.05309" y="104.99411" font-family="'Ubuntu Mono'" font-size="7.0556px" font-weight="bold" stroke-width=".26458" style="line-height:1.25" xml:space="preserve"><tspan x="107.05309" y="104.99411" font-family="'Ubuntu Mono'" font-weight="bold" stroke-width=".26458">RealFrac</tspan></text></g><g stroke-width=".26458"><g transform="translate(107.09 -5.073)" fill="#ef7d00" aria-label="☑"><path d="m53.033 140.77h4.0211l0.01654 0.0165v4.079l-0.01654 0.0193h-4.0211l-0.01654-0.0193v-4.079zm0.28939 0.30317v3.5057h3.4396v-3.5057zm3.0675 0.43546v0.0165c-0.13964 0.11943-0.24713 0.23243-0.32246 0.339-0.60082 0.81213-0.9582 1.5149-1.0721 2.1084-0.01103 0.10841-0.03124 0.16261-0.06063 0.16261-0.21497 0.0863-0.3344 0.12953-0.35829 0.12953-0.18558-0.47405-0.4667-0.71107-0.84336-0.71107h-0.06339v-0.0193l0.44648-0.20119c0.27744 0 0.48323 0.12035 0.61736 0.36104h0.01654c0.19548-0.67838 0.61494-1.3045 1.0115-1.7859 0.17823-0.22049 0.38769-0.3537 0.62838-0.39963z" fill="#ef7d00" stroke-width=".26458"/></g><g transform="translate(107.09 8.3359)" fill="#ef7d00" aria-label="☑"><path d="m53.033 140.77h4.0211l0.01654 0.0165v4.079l-0.01654 0.0193h-4.0211l-0.01654-0.0193v-4.079zm0.28939 0.30317v3.5057h3.4396v-3.5057zm3.0675 0.43546v0.0165c-0.13964 0.11943-0.24713 0.23243-0.32246 0.339-0.60082 0.81213-0.9582 1.5149-1.0721 2.1084-0.01103 0.10841-0.03124 0.16261-0.06063 0.16261-0.21497 0.0863-0.3344 0.12953-0.35829 0.12953-0.18558-0.47405-0.4667-0.71107-0.84336-0.71107h-0.06339v-0.0193l0.44648-0.20119c0.27744 0 0.48323 0.12035 0.61736 0.36104h0.01654c0.19548-0.67838 0.61494-1.3045 1.0115-1.7859 0.17823-0.22049 0.38769-0.3537 0.62838-0.39963z" fill="#ef7d00" stroke-width=".26458"/></g><path d="m160.13 128.78h4.0211l0.0165 0.0165v4.079l-0.0165 0.0193h-4.0211l-0.0165-0.0193v-4.079zm0.28939 0.30317v3.5057h3.4396v-3.5057z"/><path d="m160.13 142.38h4.0211l0.0165 0.0165v4.079l-0.0165 0.0193h-4.0211l-0.0165-0.0193v-4.079zm0.28939 0.30317v3.5057h3.4396v-3.5057z"/></g></g><g transform="translate(-9.2006)"><g transform="translate(134.28 -5.073)" fill="#663600" stroke-width=".26458" aria-label="☑"><path d="m53.033 140.77h4.0211l0.01654 0.0165v4.079l-0.01654 0.0193h-4.0211l-0.01654-0.0193v-4.079zm0.28939 0.30317v3.5057h3.4396v-3.5057zm3.0675 0.43546v0.0165c-0.13964 0.11943-0.24713 0.23243-0.32246 0.339-0.60082 0.81213-0.9582 1.5149-1.0721 2.1084-0.01103 0.10841-0.03124 0.16261-0.06063 0.16261-0.21497 0.0863-0.3344 0.12953-0.35829 0.12953-0.18558-0.47405-0.4667-0.71107-0.84336-0.71107h-0.06339v-0.0193l0.44648-0.20119c0.27744 0 0.48323 0.12035 0.61736 0.36104h0.01654c0.19548-0.67838 0.61494-1.3045 1.0115-1.7859 0.17823-0.22049 0.38769-0.3537 0.62838-0.39963z" fill="#663600" stroke-width=".26458"/></g><g transform="matrix(.61506 0 0 .61506 114.01 37.317)"><rect x="103.53" y="133.73" width="37.842" height="10.429" ry="2.4248" fill="#faf2cc" stroke="#000" stroke-width=".20556"/><text x="106.42176" y="141.58624" font-family="'Ubuntu Mono'" font-size="7.0556px" font-weight="bold" stroke-width=".26458" style="line-height:1.25" xml:space="preserve"><tspan x="106.42176" y="141.58624" font-family="'Ubuntu Mono'" font-weight="bold" stroke-width=".26458">RealFloat</tspan></text></g><g stroke-width=".26458"><g transform="translate(134.28 -5.073)" fill="#ef7d00" aria-label="☑"><path d="m53.033 140.77h4.0211l0.01654 0.0165v4.079l-0.01654 0.0193h-4.0211l-0.01654-0.0193v-4.079zm0.28939 0.30317v3.5057h3.4396v-3.5057zm3.0675 0.43546v0.0165c-0.13964 0.11943-0.24713 0.23243-0.32246 0.339-0.60082 0.81213-0.9582 1.5149-1.0721 2.1084-0.01103 0.10841-0.03124 0.16261-0.06063 0.16261-0.21497 0.0863-0.3344 0.12953-0.35829 0.12953-0.18558-0.47405-0.4667-0.71107-0.84336-0.71107h-0.06339v-0.0193l0.44648-0.20119c0.27744 0 0.48323 0.12035 0.61736 0.36104h0.01654c0.19548-0.67838 0.61494-1.3045 1.0115-1.7859 0.17823-0.22049 0.38769-0.3537 0.62838-0.39963z" fill="#ef7d00" stroke-width=".26458"/></g><path d="m187.31 128.78h4.0211l0.0165 0.0165v4.079l-0.0165 0.0193h-4.0211l-0.0165-0.0193v-4.079zm0.28939 0.30317v3.5057h3.4396v-3.5057z"/><path d="m187.31 142.38h4.0211l0.0165 0.0165v4.079l-0.0165 0.0193h-4.0211l-0.0165-0.0193v-4.079zm0.28939 0.30317v3.5057h3.4396v-3.5057z"/><path d="m187.31 149.1h4.0211l0.0165 0.0165v4.079l-0.0165 0.0193h-4.0211l-0.0165-0.0193v-4.079zm0.28939 0.30317v3.5057h3.4396v-3.5057z"/></g></g><g fill="none" stroke="#000" stroke-width=".16379"><path d="m39.738 85.057 21.545 2.5332" marker-end="url(#a)"/><path d="m28.871 59.639v20.917" marker-end="url(#h)"/><path d="m72.978 66.983 2e-6 18.759" marker-end="url(#g)"/><path d="m78.771 39.781 27.043 13.554" marker-end="url(#f)"/><path d="m41.313 58.559 21.151 3.5219" marker-end="url(#i)"/><path d="m123.59 46.052-8.0173 7.282" marker-end="url(#c)"/></g><rect x="17.821" y="59.645" width="22.389" height="12.205" ry=".88002" fill="#e8ecfb" stroke="#000" stroke-width=".12395"/><text x="27.126543" y="63.411842" font-family="'Ubuntu Mono'" font-size="4.3608px" stroke-width=".16353" style="line-height:1.25" xml:space="preserve"><tspan x="27.126543" y="63.411842" font-size="4.3608px" stroke-width=".16353">/</tspan></text><rect x="18.771" y="66.687" width="6.5787" height="1.31" ry="0" fill="#ff00d1"/><text x="19.039185" y="67.601341" font-family="'Ubuntu Mono'" font-size="3.0526px" stroke-width=".16353" style="line-height:1.25" xml:space="preserve"><tspan x="19.039185" y="67.601341" font-size="3.0526px" stroke-width=".16353">fromRational</tspan></text><text x="21.155359" y="70.318306" font-family="'Ubuntu Mono'" font-size="3.0526px" stroke-width=".16353" style="line-height:1.25" xml:space="preserve"><tspan x="21.155359" y="70.318306" font-size="3.0526px" stroke-width=".16353">(3.14, 5E-9)</tspan></text></svg>
