<?xml version="1.0" encoding="UTF-8"?>
<svg width="250mm" height="176mm" version="1.1" viewBox="0 0 250 176" xmlns="http://www.w3.org/2000/svg"><defs><marker id="a" overflow="visible" orient="auto"><path transform="scale(1.1) rotate(180) translate(1)" d="m8.7186 4.0337-10.926-4.0177 10.926-4.0177c-1.7455 2.3721-1.7354 5.6175-6e-7 8.0354z" fill-rule="evenodd" stroke="#000" stroke-linejoin="round" stroke-width=".625"/></marker><marker id="b" overflow="visible" orient="auto"><path transform="scale(1.1) rotate(180) translate(1)" d="m8.7186 4.0337-10.926-4.0177 10.926-4.0177c-1.7455 2.3721-1.7354 5.6175-6e-7 8.0354z" fill-rule="evenodd" stroke="#000" stroke-linejoin="round" stroke-width=".625"/></marker><marker id="c" overflow="visible" orient="auto"><path transform="scale(1.1) rotate(180) translate(1)" d="m8.7186 4.0337-10.926-4.0177 10.926-4.0177c-1.7455 2.3721-1.7354 5.6175-6e-7 8.0354z" fill-rule="evenodd" stroke="#000" stroke-linejoin="round" stroke-width=".625"/></marker><marker id="d" overflow="visible" orient="auto"><path transform="scale(1.1) rotate(180) translate(1)" d="m8.7186 4.0337-10.926-4.0177 10.926-4.0177c-1.7455 2.3721-1.7354 5.6175-6e-7 8.0354z" fill-rule="evenodd" stroke="#000" stroke-linejoin="round" stroke-width=".625"/></marker><marker id="e" overflow="visible" orient="auto"><path transform="scale(1.1) rotate(180) translate(1)" d="m8.7186 4.0337-10.926-4.0177 10.926-4.0177c-1.7455 2.3721-1.7354 5.6175-6e-7 8.0354z" fill-rule="evenodd" stroke="#000" stroke-linejoin="round" stroke-width=".625"/></marker><marker id="f" overflow="visible" orient="auto"><path transform="scale(1.1) rotate(180) translate(1)" d="m8.7186 4.0337-10.926-4.0177 10.926-4.0177c-1.7455 2.3721-1.7354 5.6175-6e-7 8.0354z" fill-rule="evenodd" stroke="#000" stroke-linejoin="round" stroke-width=".625"/></marker><marker id="h" overflow="visible" orient="auto"><path transform="scale(1.1) rotate(180) translate(1)" d="m8.7186 4.0337-10.926-4.0177 10.926-4.0177c-1.7455 2.3721-1.7354 5.6175-6e-7 8.0354z" fill-rule="evenodd" stroke="#000" stroke-linejoin="round" stroke-width=".625"/></marker><marker id="i" overflow="visible" orient="auto"><path transform="scale(1.1) rotate(180) translate(1)" d="m8.7186 4.0337-10.926-4.0177 10.926-4.0177c-1.7455 2.3721-1.7354 5.6175-6e-7 8.0354z" fill-rule="evenodd" stroke="#000" stroke-linejoin="round" stroke-width=".625"/></marker><marker id="j" overflow="visible" orient="auto"><path transform="scale(1.1) rotate(180) translate(1)" d="m8.7186 4.0337-10.926-4.0177 10.926-4.0177c-1.7455 2.3721-1.7354 5.6175-6e-7 8.0354z" fill-rule="evenodd" stroke="#000" stroke-linejoin="round" stroke-width=".625"/></marker><marker id="g" overflow="visible" orient="auto"><path transform="matrix(-1.1,0,0,-1.1,-1.1,0)" d="m8.7186 4.0337-10.926-4.0177 10.926-4.0177c-1.7455 2.3721-1.7354 5.6175-6e-7 8.0354z" fill-rule="evenodd" stroke="#000" stroke-linejoin="round" stroke-width=".625"/></marker></defs><text x="3.1249845" y="12.727324" fill="#000000" font-family="sans-serif" font-size="10.583px" stroke-width=".26458" style="line-height:1.25" xml:space="preserve"><tspan x="3.1249845" y="12.727324" stroke-width=".26458">Numeric type classes in Haskell</tspan></text><g transform="translate(-76.134 .29786)"><rect x="112.46" y="19.175" width="17.296" height="10.27" ry="2.4414" fill="#faf2cc" stroke="#000" stroke-width=".20626"/><g transform="translate(14.51 1.1696)"><text x="101.23174" y="25.442904" font-family="'Ubuntu Mono'" font-size="7.0556px" font-weight="bold" stroke-width=".26458" style="line-height:1.25" xml:space="preserve"><tspan x="101.23174" y="25.442904" font-family="'Ubuntu Mono'" font-weight="bold" stroke-width=".26458">Num</tspan></text></g></g><g transform="translate(-88.236 8.9484)"><rect x="218.75" y="17.402" width="17.296" height="10.2" ry="2.4248" fill="#faf2cc" stroke="#000" stroke-width=".20556"/><text x="221.89845" y="25.497068" fill="#808080" font-family="'Ubuntu Mono'" font-size="7.0556px" font-weight="bold" stroke-width=".26458" style="line-height:1.25" xml:space="preserve"><tspan x="221.89845" y="25.497068" fill="#808080" font-family="'Ubuntu Mono'" font-weight="bold" stroke-width=".26458">Ord</tspan></text></g><g transform="translate(182.51 43.572)"><rect x="11.1" y="18.93" width="20.445" height="10.183" ry="2.4206" fill="#faf2cc" stroke="#000" stroke-width=".22329"/><text x="13.985712" y="27.029398" fill="#808080" font-family="'Ubuntu Mono'" font-size="7.0556px" font-weight="bold" stroke-width=".26458" style="line-height:1.25" xml:space="preserve"><tspan x="13.985712" y="27.029398" fill="#808080" font-family="'Ubuntu Mono'" font-weight="bold" stroke-width=".26458">Enum</tspan></text></g><g transform="translate(-76.134 30.181)"><rect x="100.88" y="54.285" width="40.452" height="10.2" ry="2.4248" fill="#faf2cc" stroke="#000" stroke-width=".20556"/><text x="103.77837" y="62.37928" font-family="'Ubuntu Mono'" font-size="7.0556px" font-weight="bold" stroke-width=".26458" style="line-height:1.25" xml:space="preserve"><tspan x="103.77837" y="62.37928" font-family="'Ubuntu Mono'" font-weight="bold" stroke-width=".26458">Fractional</tspan></text></g><g transform="translate(-73.277 -1.2518)"><rect x="179.16" y="53.99" width="20.912" height="10.2" ry="2.4248" fill="#faf2cc" stroke="#000" stroke-width=".20556"/><text x="182.11702" y="62.098892" font-family="'Ubuntu Mono'" font-size="7.0556px" font-weight="bold" stroke-width=".26458" style="line-height:1.25" xml:space="preserve"><tspan x="182.11702" y="62.098892" font-family="'Ubuntu Mono'" font-weight="bold" stroke-width=".26458">Real</tspan></text></g><g transform="translate(-4.7717 -.53708)"><rect x="104.1" y="96.885" width="34.03" height="10.2" ry="2.4248" fill="#faf2cc" stroke="#000" stroke-width=".20556"/><text x="107.05309" y="104.99411" font-family="'Ubuntu Mono'" font-size="7.0556px" font-weight="bold" stroke-width=".26458" style="line-height:1.25" xml:space="preserve"><tspan x="107.05309" y="104.99411" font-family="'Ubuntu Mono'" font-weight="bold" stroke-width=".26458">RealFrac</tspan></text></g><g transform="translate(-71.675 2.8169)"><g transform="translate(65.565 .35338)"><rect x="103.53" y="133.73" width="37.842" height="10.429" ry="2.4248" fill="#faf2cc" stroke="#000" stroke-width=".20556"/><text x="106.42176" y="140.73009" font-family="'Ubuntu Mono'" font-size="7.0556px" font-weight="bold" stroke-width=".26458" style="line-height:1.25" xml:space="preserve"><tspan x="106.42176" y="140.73009" font-family="'Ubuntu Mono'" font-weight="bold" stroke-width=".26458">RealFloat</tspan></text></g></g><g fill="none" stroke="#000" stroke-width=".265"><path d="m198.23 72.684-12.972 11.782" marker-end="url(#j)"/><path d="m44.977 29.743v54.723" marker-end="url(#i)"/><path d="m53.318 28.492 53.379 24.857" marker-end="url(#h)"/><path d="m134.71 36.551-14.145 16.187" marker-end="url(#f)"/><path d="m116.34 62.939v33.41" marker-end="url(#e)"/><path d="m44.977 84.465v-54.723" marker-end="url(#d)"/></g><g><rect x="162.77" y="94.666" width="33.687" height="14.787" ry=".93772" fill="#e8ecfb" stroke="#000" stroke-width=".15796"/><rect x="162.82" y="84.465" width="33.633" height="10.2" ry="2.4248" fill="#faf2cc" stroke="#000" stroke-width=".20556"/><text x="165.78217" y="91.466515" fill="#000000" font-family="'Ubuntu Mono'" font-size="7.0556px" font-weight="bold" stroke-width=".26458" style="line-height:1.25" xml:space="preserve"><tspan x="165.78217" y="91.466515" fill="#000000" font-family="'Ubuntu Mono'" font-weight="bold" stroke-width=".26458">Integral</tspan></text></g><g transform="translate(-76.134 -5.2202)"><rect x="103.53" y="133.73" width="35.165" height="10.429" ry="2.4248" fill="#faf2cc" stroke="#000" stroke-width=".20556"/><text x="106.42176" y="140.73009" font-family="'Ubuntu Mono'" font-size="7.0556px" font-weight="bold" stroke-width=".26458" style="line-height:1.25" xml:space="preserve"><tspan x="106.42176" y="140.73009" font-family="'Ubuntu Mono'" font-weight="bold" stroke-width=".26458">Floating</tspan></text></g><path d="m116.34 106.55v30.351" fill="none" marker-end="url(#c)" stroke="#000" stroke-width=".265"/><text x="169.56206" y="107.25989" font-family="'Ubuntu Mono'" font-size="4.9389px" stroke-width=".26458" style="line-height:1.25" xml:space="preserve"><tspan x="169.56206" y="107.25989" font-size="4.9389px" stroke-width=".26458">div, mod</tspan></text><rect x="26.454" y="29.768" width="35.245" height="24.64" ry="1.767" fill="#e8ecfb" stroke="#000" stroke-width=".2268"/><text x="33.98278" y="35.561802" font-family="'Ubuntu Mono'" font-size="7.0556px" stroke-width=".26458" style="line-height:1.25" xml:space="preserve"><tspan x="33.98278" y="35.561802" font-size="7.0556px" stroke-width=".26458">+ - *</tspan></text><text x="28.598" y="52.129295" font-family="'Ubuntu Mono'" font-size="4.9389px" stroke-width=".26458" style="line-height:1.25" xml:space="preserve"><tspan x="28.598" y="52.129295" font-size="4.9389px" stroke-width=".26458">abs, signum</tspan></text><rect x="126.79" y="52.73" width="31.988" height="8.4974" ry="1.4325" fill="#e8ecfb" stroke="#000" stroke-width=".18703"/><rect x="30.704" y="138.73" width="28.545" height="15.8" ry="1.0019" fill="#e8ecfb" stroke="#000" stroke-width=".15031"/><text x="34.133492" y="144.74835" font-family="'Ubuntu Mono'" font-size="4.9389px" stroke-width=".26458" style="line-height:1.25" xml:space="preserve"><tspan x="34.133492" y="144.74835">exp, log,</tspan><tspan x="34.133492" y="150.92198">sin, cos</tspan></text><rect x="133.35" y="97.407" width="18.047" height="8.4974" ry="1.4325" fill="#e8ecfb" stroke="#000" stroke-width=".18703"/><text x="135.31209" y="103.33185" font-family="'Ubuntu Mono'" font-size="4.9389px" stroke-width=".26458" style="line-height:1.25" xml:space="preserve"><tspan x="135.31209" y="103.33185" font-size="4.9389px" stroke-width=".26458">floor</tspan></text><rect x="99.456" y="147.33" width="33.687" height="14.787" ry=".93772" fill="#e8ecfb" stroke="#000" stroke-width=".15796"/><rect x="168.88" y="99.286" width="6.2871" height="2.1195" ry="0" fill="#4dff01"/><text x="169.59639" y="100.94421" font-family="'Ubuntu Mono'" font-size="4.9389px" stroke-width=".26458" style="line-height:1.25" xml:space="preserve"><tspan x="169.59639" y="100.94421" font-size="4.9389px" stroke-width=".26458">toInteger</tspan></text><rect x="130.07" y="57.401" width="5.7703" height="1.8932" ry="0" fill="#4dff01"/><text x="130.58969" y="58.729713" font-family="'Ubuntu Mono'" font-size="4.9389px" stroke-width=".26458" style="line-height:1.25" xml:space="preserve"><tspan x="130.58969" y="58.729713" font-size="4.9389px" stroke-width=".26458">toRational</tspan></text><path d="m62.559 135.79 34.858 4.0985" fill="none" marker-end="url(#b)" stroke="#000" stroke-width=".265"/><rect x="28.736" y="39.457" width="10.644" height="2.1195" ry="0" fill="#ff00d1"/><text x="29.179024" y="41.040066" font-family="'Ubuntu Mono'" font-size="4.9389px" stroke-width=".26458" style="line-height:1.25" xml:space="preserve"><tspan x="29.179024" y="41.040066" font-size="4.9389px" stroke-width=".26458">fromInteger</tspan></text><rect x="102.6" y="157.93" width="15.462" height="2.1195" ry="0" fill="#ff00d1"/><text x="103.0959" y="159.50539" font-family="'Ubuntu Mono'" font-size="4.9389px" stroke-width=".26458" style="line-height:1.25" xml:space="preserve"><tspan x="103.0959" y="159.50539" font-size="4.9389px" stroke-width=".26458">encodeFloat</tspan></text><rect x="102.64" y="151.58" width="15.614" height="1.9074" ry="0" fill="#4dff01"/><text x="103.13023" y="153.18971" font-family="'Ubuntu Mono'" font-size="4.9389px" stroke-width=".26458" style="line-height:1.25" xml:space="preserve"><tspan x="103.13023" y="153.18971" font-size="4.9389px" stroke-width=".26458">decodeFloat</tspan></text><g font-family="serif" stroke-width=".26458"><text x="31.601942" y="159.23734" font-size="4.2333px" style="line-height:1.25" xml:space="preserve"><tspan x="31.601942" y="159.23734">Elementary</tspan><tspan x="31.601942" y="165.03799">functions</tspan></text><text x="115.28465" y="25.603121" font-size="5.6444px" style="line-height:1.25" xml:space="preserve"><tspan x="115.28465" y="25.603121" stroke-width=".26458"/></text><text x="92.20607" y="166.98398" font-size="4.2333px" style="line-height:1.25" xml:space="preserve"><tspan x="92.20607" y="166.98398">(Similar to) machine </tspan><tspan x="92.20607" y="172.78464">floating point types</tspan></text><text x="74.00457" y="61.553734" font-size="4.2333px" style="line-height:1.25" xml:space="preserve"><tspan x="74.00457" y="61.553734">Have ordering</tspan><tspan x="74.00457" y="67.354385">(by converting to</tspan><tspan x="74.00457" y="73.155037">Rational)</tspan><tspan x="74.00457" y="78.955688"/></text></g><g stroke-width=".26458"><text x="33.477066" y="45.794441" font-family="'Ubuntu Mono'" font-size="4.9389px" style="line-height:1.25" xml:space="preserve"><tspan x="33.477066" y="45.794441" font-size="4.9389px" stroke-width=".26458">(100, 0x3F)</tspan></text><text x="160.53162" y="121.28831" font-family="serif" font-size="4.2333px" style="line-height:1.25" xml:space="preserve"><tspan x="160.53162" y="121.28831"/><tspan x="160.53162" y="126.57997"/></text><text x="71.64328" y="105.49915" font-family="serif" font-size="4.2333px" style="line-height:1.25" xml:space="preserve"><tspan x="71.64328" y="105.49915">Can split to</tspan><tspan x="71.64328" y="111.2998"><tspan font-style="italic">integer</tspan> + <tspan font-style="italic">fraction</tspan></tspan></text></g><g fill="none" stroke="#000"><path d="m185.98 84.465" stroke-width=".26458px"/><path d="m125.71 62.536 43.754 21.929" marker-end="url(#a)" stroke-width=".265"/><path d="m44.977 94.666v33.843" marker-end="url(#a)" stroke-width=".26458px"/></g><rect x="27.099" y="94.676" width="36.225" height="19.747" ry="1.4238" fill="#e8ecfb" stroke="#000" stroke-width=".20054"/><text x="42.154579" y="100.77004" font-family="'Ubuntu Mono'" font-size="7.0556px" stroke-width=".26458" style="line-height:1.25" xml:space="preserve"><tspan x="42.154579" y="100.77004" font-size="7.0556px" stroke-width=".26458">/</tspan></text><rect x="28.636" y="106.07" width="10.644" height="2.1195" ry="0" fill="#ff00d1"/><text x="29.069725" y="107.54839" font-family="'Ubuntu Mono'" font-size="4.9389px" stroke-width=".26458" style="line-height:1.25" xml:space="preserve"><tspan x="29.069725" y="107.54839" font-size="4.9389px" stroke-width=".26458">fromRational</tspan></text><text x="32.493568" y="111.94428" font-family="'Ubuntu Mono'" font-size="4.9389px" stroke-width=".26458" style="line-height:1.25" xml:space="preserve"><tspan x="32.493568" y="111.94428" font-size="4.9389px" stroke-width=".26458">(3.14, 5E-9)</tspan></text><path d="m65.108 92.918 34.221 5.6983" fill="none" marker-end="url(#g)" stroke="#000" stroke-width=".265"/></svg>
